<?xml version="1.0" standalone="no"?>
<!DOCTYPE svg PUBLIC "-//W3C//DTD SVG 20010904//EN"
 "http://www.w3.org/TR/2001/REC-SVG-20010904/DTD/svg10.dtd">
<svg version="1.0" xmlns="http://www.w3.org/2000/svg"
 width="2353.000000pt" height="2353.000000pt" viewBox="0 0 2353.000000 2353.000000"
 preserveAspectRatio="xMidYMid meet">
<metadata>
Created by potrace 1.11, written by Peter Selinger 2001-2013
</metadata>
<g transform="translate(0.000000,2353.000000) scale(0.100000,-0.100000)"
fill="#000000" stroke="none">
<path d="M18100 23015 c-82 -14 -87 -15 -270 -44 -69 -12 -136 -23 -150 -25
-36 -7 -161 -28 -187 -31 -26 -4 -97 -15 -128 -21 -42 -8 -132 -23 -169 -29
-21 -3 -48 -7 -60 -10 -12 -2 -39 -7 -61 -10 -22 -3 -65 -10 -95 -15 -30 -5
-72 -12 -94 -16 -21 -3 -48 -8 -60 -10 -11 -2 -41 -7 -66 -10 -25 -3 -52 -7
-60 -9 -8 -2 -28 -6 -45 -9 -232 -38 -405 -67 -425 -71 -14 -3 -47 -7 -75 -11
-27 -3 -52 -7 -55 -9 -3 -2 -26 -6 -50 -10 -25 -3 -70 -10 -100 -15 -64 -11
-110 -18 -160 -26 -19 -3 -55 -9 -80 -14 -25 -5 -63 -11 -85 -14 -22 -3 -92
-14 -155 -25 -166 -29 -172 -30 -205 -35 -33 -5 -206 -34 -245 -41 -14 -2 -99
-16 -190 -31 -91 -14 -172 -27 -180 -29 -8 -1 -35 -6 -60 -10 -25 -4 -54 -9
-65 -11 -10 -2 -35 -6 -55 -9 -20 -3 -47 -7 -60 -10 -13 -3 -40 -7 -60 -10
-20 -3 -56 -9 -81 -13 l-44 -8 -1 -3354 c-1 -1845 -2 -3358 -3 -3362 0 -3 -72
23 -158 59 -291 119 -823 301 -1017 348 -119 29 -419 95 -450 99 -23 4 -52 8
-66 11 -98 19 -309 47 -470 61 -30 2 -75 7 -100 9 -268 27 -1100 27 -1330 1
-19 -3 -71 -7 -115 -11 -44 -3 -96 -8 -115 -10 -19 -2 -60 -7 -90 -10 -30 -3
-82 -10 -115 -15 -33 -5 -78 -12 -100 -15 -22 -3 -56 -8 -75 -11 -19 -3 -46
-8 -60 -10 -14 -2 -34 -6 -46 -9 -12 -3 -39 -7 -60 -10 -131 -19 -592 -133
-769 -190 -77 -25 -144 -47 -150 -49 -5 -2 -23 -8 -38 -14 -16 -7 -32 -12 -36
-12 -31 0 -429 -172 -636 -275 -286 -142 -385 -198 -650 -370 -194 -126 -439
-314 -655 -503 -172 -149 -500 -493 -672 -702 -528 -644 -963 -1464 -1241
-2340 -46 -144 -123 -406 -132 -445 -2 -11 -14 -56 -25 -100 -20 -78 -94 -402
-104 -458 -2 -15 -7 -35 -10 -45 -3 -9 -7 -33 -10 -52 -3 -19 -8 -45 -10 -56
-2 -12 -7 -39 -10 -60 -4 -22 -8 -46 -11 -54 -4 -14 -6 -30 -21 -127 -3 -21
-9 -63 -14 -93 -5 -30 -12 -75 -15 -100 -3 -25 -8 -56 -10 -70 -2 -14 -9 -68
-15 -120 -6 -52 -13 -106 -16 -120 -2 -14 -6 -54 -9 -90 -4 -36 -8 -83 -10
-105 -2 -22 -6 -69 -9 -105 -15 -168 -17 -192 -31 -430 -22 -381 -22 -1017 0
-1350 2 -25 6 -90 9 -145 4 -55 9 -113 11 -130 2 -16 7 -66 10 -110 3 -44 8
-91 10 -105 2 -14 7 -56 10 -95 3 -38 8 -77 10 -85 2 -8 6 -42 10 -75 3 -33 8
-71 10 -85 3 -14 7 -41 10 -60 26 -196 93 -559 131 -713 8 -34 17 -73 20 -87
35 -169 163 -600 257 -865 110 -311 323 -792 455 -1027 12 -21 38 -68 58 -105
21 -37 55 -97 76 -132 21 -34 38 -65 38 -67 0 -15 251 -389 358 -534 76 -101
228 -296 257 -326 5 -6 33 -37 60 -70 97 -113 161 -181 329 -349 194 -193 239
-234 501 -453 11 -10 49 -39 85 -67 36 -27 67 -52 70 -55 3 -3 66 -49 140
-101 921 -653 2005 -1084 3180 -1264 19 -3 46 -7 60 -10 14 -2 49 -7 79 -10
30 -4 61 -8 70 -10 9 -2 44 -6 76 -10 33 -4 71 -8 84 -10 12 -2 60 -7 105 -10
44 -4 88 -8 96 -10 8 -2 58 -7 110 -10 52 -4 111 -8 130 -10 240 -27 1421 -27
1825 0 33 2 107 7 165 10 237 13 333 20 435 30 22 2 76 6 120 10 85 6 152 12
225 21 25 2 63 6 85 8 100 9 177 18 193 21 9 1 48 6 85 10 37 3 76 8 85 10 9
1 46 6 82 10 36 4 72 8 80 10 8 1 44 6 80 10 36 4 72 9 80 10 18 4 154 24 195
30 17 2 48 6 70 10 22 3 54 8 70 11 17 3 55 9 85 14 30 5 71 12 90 15 125 20
576 101 675 121 11 2 34 7 50 10 17 2 129 25 250 50 121 25 231 47 245 50 14
3 95 21 180 41 85 19 182 41 215 49 143 32 515 129 688 180 151 44 381 115
386 120 3 3 5 21543 2 21632 -1 25 1 25 -101 7z m-6025 -10259 c105 -7 143
-10 238 -21 23 -3 65 -7 92 -10 28 -3 57 -8 65 -10 8 -2 35 -7 60 -10 374 -51
953 -246 1415 -477 137 -69 274 -147 276 -156 1 -4 2 -1777 3 -3940 1 -2615
-2 -3936 -9 -3942 -5 -4 -32 -11 -60 -15 -27 -5 -54 -9 -60 -10 -5 -2 -46 -8
-90 -15 -44 -7 -87 -13 -95 -15 -8 -1 -42 -6 -75 -10 -32 -4 -67 -8 -76 -10
-9 -2 -40 -6 -70 -10 -30 -3 -65 -8 -79 -10 -14 -2 -52 -6 -85 -10 -33 -3 -76
-7 -95 -10 -58 -7 -210 -19 -370 -30 -365 -25 -1112 -25 -1280 0 -14 2 -52 7
-85 10 -163 18 -458 75 -590 116 -555 169 -973 415 -1341 791 -170 172 -265
287 -396 478 -128 185 -265 431 -333 595 -16 39 -32 75 -36 80 -9 13 -90 230
-122 325 -76 229 -163 582 -192 784 -3 21 -7 41 -9 45 -2 3 -7 37 -11 76 -4
38 -8 72 -10 75 -2 3 -6 30 -9 60 -3 30 -8 74 -11 98 -16 135 -19 177 -30 337
-14 201 -20 717 -11 905 10 193 18 328 21 355 2 17 7 64 10 105 6 77 11 129
20 190 2 19 7 60 10 90 6 52 49 327 60 380 3 14 13 61 21 105 63 322 191 734
316 1015 31 70 126 261 151 305 13 22 35 61 49 86 103 184 305 451 433 572 17
15 50 47 75 71 219 207 560 401 895 509 116 37 369 97 480 113 22 3 50 7 63 9
13 2 53 7 90 10 37 4 78 9 92 11 14 2 102 7 195 11 94 3 171 6 172 7 4 3 225
-2 328 -8z"/>
</g>
</svg>
