<?xml version="1.0" encoding="utf-8"?>
<!-- Generator: Adobe Illustrator 21.1.0, SVG Export Plug-In . SVG Version: 6.00 Build 0)  -->
<svg version="1.1" xmlns="http://www.w3.org/2000/svg" xmlns:xlink="http://www.w3.org/1999/xlink" x="0px" y="0px"
	 viewBox="0 0 43.4 28.5" style="enable-background:new 0 0 43.4 28.5;" xml:space="preserve">
<style type="text/css">
	.st0{display:none;}
	.st1{opacity:0.39;}
	.st2{fill:#F8D5D3;}
	.st3{display:inline;}
	.st4{fill:#929497;}
	.st5{fill:#97D339;}
	.st6{fill:#FFFFFF;}
	.st7{fill:#BC1D1D;}
	.st8{fill:#C4C4C4;}
	.st9{fill:#2B2B2B;}
	.st10{fill:none;stroke:#231F20;stroke-miterlimit:10;}
	.st11{fill:#231F20;}
	.st12{fill:none;}
	.st13{fill:none;stroke:#000000;stroke-miterlimit:10;}
	.st14{opacity:0.51;}
	.st15{opacity:0.8;}
	.st16{opacity:0.8;fill:#231F20;}
	.st17{fill:none;stroke:#000000;stroke-width:0.25;stroke-miterlimit:10;}
	.st18{opacity:0.25;fill:#C4C4C4;}
	.st19{opacity:0.4;clip-path:url(#SVGID_2_);}
	.st20{fill:none;stroke:#C4C4C4;stroke-miterlimit:10;}
	.st21{opacity:0.9;fill:#1C1C1C;}
	.st22{fill:none;stroke:#FFFFFF;stroke-width:2;stroke-miterlimit:10;}
	.st23{opacity:0.5;fill:#C4C4C4;}
	.st24{opacity:0.6;clip-path:url(#SVGID_4_);fill:#2B2B2B;stroke:#2B2B2B;stroke-miterlimit:10;}
	.st25{opacity:0.31;clip-path:url(#SVGID_6_);fill:#2B2B2B;}
	.st26{opacity:0.31;clip-path:url(#SVGID_8_);fill:#2B2B2B;}
	.st27{opacity:0.31;clip-path:url(#SVGID_10_);fill:#2B2B2B;}
	.st28{opacity:0.31;clip-path:url(#SVGID_12_);fill:#2B2B2B;}
	.st29{fill:none;stroke:#C4C4C4;stroke-width:2;stroke-miterlimit:10;}
	.st30{opacity:0.6;clip-path:url(#SVGID_14_);fill:#2B2B2B;stroke:#2B2B2B;stroke-miterlimit:10;}
	.st31{opacity:0.31;clip-path:url(#SVGID_16_);fill:#2B2B2B;}
	.st32{opacity:0.31;clip-path:url(#SVGID_18_);fill:#2B2B2B;}
	.st33{opacity:0.31;clip-path:url(#SVGID_20_);fill:#2B2B2B;}
	.st34{opacity:0.31;clip-path:url(#SVGID_22_);fill:#2B2B2B;}
	.st35{opacity:0.6;clip-path:url(#SVGID_24_);fill:#2B2B2B;stroke:#2B2B2B;stroke-miterlimit:10;}
	.st36{opacity:0.31;clip-path:url(#SVGID_26_);fill:#2B2B2B;}
	.st37{opacity:0.31;clip-path:url(#SVGID_28_);fill:#2B2B2B;}
	.st38{opacity:0.31;clip-path:url(#SVGID_30_);fill:#2B2B2B;}
	.st39{opacity:0.31;clip-path:url(#SVGID_32_);fill:#2B2B2B;}
	.st40{opacity:0.6;clip-path:url(#SVGID_34_);fill:#2B2B2B;stroke:#2B2B2B;stroke-miterlimit:10;}
	.st41{opacity:0.45;clip-path:url(#SVGID_36_);fill:#2B2B2B;stroke:#2B2B2B;stroke-miterlimit:10;}
	.st42{fill:none;stroke:#C4C4C4;stroke-width:0.5;stroke-miterlimit:10;}
	.st43{fill:none;stroke:#97D339;stroke-miterlimit:10;}
	.st44{fill:none;stroke:#2B2B2B;stroke-miterlimit:10;}
	.st45{opacity:0.45;clip-path:url(#SVGID_38_);fill:#2B2B2B;stroke:#2B2B2B;stroke-miterlimit:10;}
	.st46{opacity:0.45;clip-path:url(#SVGID_40_);fill:#2B2B2B;stroke:#2B2B2B;stroke-miterlimit:10;}
	.st47{opacity:0.45;clip-path:url(#SVGID_42_);fill:#2B2B2B;stroke:#2B2B2B;stroke-miterlimit:10;}
	.st48{opacity:0.45;clip-path:url(#SVGID_44_);fill:#2B2B2B;stroke:#2B2B2B;stroke-miterlimit:10;}
	.st49{opacity:0.25;clip-path:url(#SVGID_46_);fill:#FFFFFF;stroke:#2B2B2B;stroke-miterlimit:10;}
	.st50{opacity:0.25;clip-path:url(#SVGID_48_);fill:#FFFFFF;stroke:#2B2B2B;stroke-miterlimit:10;}
	.st51{opacity:0.25;clip-path:url(#SVGID_50_);fill:#FFFFFF;stroke:#2B2B2B;stroke-miterlimit:10;}
	.st52{opacity:0.25;clip-path:url(#SVGID_52_);fill:#FFFFFF;stroke:#2B2B2B;stroke-miterlimit:10;}
	.st53{opacity:0.25;clip-path:url(#SVGID_54_);fill:#FFFFFF;stroke:#2B2B2B;stroke-miterlimit:10;}
	.st54{fill:none;stroke:#BC1D1D;stroke-width:2;stroke-miterlimit:10;}
	.st55{fill:#FFFFFF;stroke:#FFFFFF;stroke-width:0.25;stroke-miterlimit:10;}
	.st56{opacity:0.45;clip-path:url(#SVGID_56_);fill:#2B2B2B;stroke:#2B2B2B;stroke-miterlimit:10;}
	.st57{opacity:0.7;}
</style>
<g id="rules" class="st0">
</g>
<g id="columns">
</g>
<g id="numbers" class="st0">
	<g id="main_layout" class="st3">
	</g>
</g>
<g id="Style">
</g>
<g id="Wireframes">
</g>
<g id="Mockups">
	<g>
		<path class="st7" d="M40.6,19.2c-0.1-1.5,0-2.9,0.1-4.1h0c0-0.4,0.1-0.8,0.1-1.2c0-6.2-5-11.2-11.2-11.2H12.8
			c-6.2,0-11.2,5-11.2,11.2s5,11.2,11.2,11.2h16.8c0.8,0,1.7-0.1,2.4-0.3l0,0c1-0.3,2.3-0.5,3.7-0.5c2.4-0.1,4.4,0.4,5.7,0.8
			C41.1,23.5,40.7,21.5,40.6,19.2z M16.1,21c-0.8,0-1.4-0.6-1.4-1.4c0-0.8,0.6-1.4,1.4-1.4s1.4,0.6,1.4,1.4
			C17.4,20.4,16.8,21,16.1,21z M20.9,21c-0.8,0-1.4-0.6-1.4-1.4s0.6-1.4,1.4-1.4c0.8,0,1.4,0.6,1.4,1.4S21.6,21,20.9,21z M22.8,14.4
			c-0.3,0.3-0.6,0.6-0.7,1c-0.1,0.4-0.2,0.8-0.2,1.3h-2.2c0-0.6,0.1-1.1,0.2-1.5s0.3-0.8,0.5-1.1c0.2-0.3,0.5-0.7,0.9-1.1
			c0.4-0.4,0.7-0.7,0.9-0.9s0.4-0.5,0.5-0.7c0.1-0.3,0.2-0.6,0.2-0.9c0-0.6-0.1-1-0.4-1.3c-0.3-0.3-0.7-0.5-1.3-0.5
			c-0.5,0-0.9,0.1-1.3,0.4c-0.4,0.3-0.5,0.7-0.5,1.3h-2.4c0-0.8,0.2-1.5,0.6-2c0.4-0.6,0.9-1,1.5-1.3c0.6-0.3,1.3-0.4,2.1-0.4
			c0.9,0,1.6,0.1,2.2,0.4c0.6,0.3,1.1,0.7,1.4,1.3c0.3,0.6,0.5,1.2,0.5,2c0,0.5-0.1,1-0.3,1.5c-0.2,0.4-0.5,0.9-0.8,1.2
			C23.8,13.5,23.3,13.9,22.8,14.4z M25.7,21c-0.8,0-1.4-0.6-1.4-1.4c0-0.8,0.6-1.4,1.4-1.4c0.8,0,1.4,0.6,1.4,1.4
			C27.1,20.4,26.4,21,25.7,21z"/>
		<circle class="st6" cx="16.1" cy="19.7" r="1.4"/>
		<circle class="st6" cx="20.9" cy="19.7" r="1.4"/>
		<circle class="st6" cx="25.7" cy="19.7" r="1.4"/>
		<path class="st6" d="M25.2,10.5c0-0.8-0.2-1.4-0.5-2c-0.3-0.6-0.8-1-1.4-1.3c-0.6-0.3-1.3-0.4-2.2-0.4c-0.8,0-1.5,0.1-2.1,0.4
			c-0.6,0.3-1.1,0.7-1.5,1.3c-0.4,0.6-0.5,1.2-0.6,2h2.4c0-0.6,0.2-1,0.5-1.3c0.3-0.3,0.8-0.4,1.3-0.4c0.6,0,1,0.2,1.3,0.5
			c0.3,0.3,0.4,0.8,0.4,1.3c0,0.3-0.1,0.6-0.2,0.9c-0.1,0.3-0.3,0.5-0.5,0.7s-0.5,0.5-0.9,0.9c-0.4,0.4-0.7,0.7-0.9,1.1
			c-0.2,0.3-0.4,0.7-0.5,1.1s-0.1,0.9-0.2,1.5h2.2c0-0.5,0.1-0.9,0.2-1.3c0.1-0.4,0.4-0.7,0.7-1c0.5-0.5,0.9-0.9,1.3-1.3
			c0.3-0.4,0.6-0.8,0.8-1.2C25.1,11.5,25.2,11,25.2,10.5z"/>
	</g>
</g>
</svg>
