<?xml version="1.0" encoding="utf-8"?>
<!-- Generator: Adobe Illustrator 21.1.0, SVG Export Plug-In . SVG Version: 6.00 Build 0)  -->
<svg version="1.1" xmlns="http://www.w3.org/2000/svg" xmlns:xlink="http://www.w3.org/1999/xlink" x="0px" y="0px"
	 viewBox="0 0 228.5 46.7" style="enable-background:new 0 0 228.5 46.7;" xml:space="preserve">
<style type="text/css">
	.st0{display:none;}
	.st1{opacity:0.39;}
	.st2{fill:#F8D5D3;}
	.st3{display:inline;}
	.st4{fill:#929497;}
	.st5{fill:#97D339;}
	.st6{fill:#FFFFFF;}
	.st7{fill:#BC1D1D;}
	.st8{fill:#C4C4C4;}
	.st9{fill:#2B2B2B;}
	.st10{fill:none;stroke:#231F20;stroke-miterlimit:10;}
	.st11{fill:#231F20;}
	.st12{fill:none;}
	.st13{fill:none;stroke:#000000;stroke-miterlimit:10;}
	.st14{opacity:0.51;}
	.st15{opacity:0.8;}
	.st16{opacity:0.8;fill:#231F20;}
	.st17{fill:none;stroke:#000000;stroke-width:0.25;stroke-miterlimit:10;}
	.st18{opacity:0.25;fill:#C4C4C4;}
	.st19{opacity:0.4;clip-path:url(#SVGID_2_);}
	.st20{fill:none;stroke:#C4C4C4;stroke-miterlimit:10;}
	.st21{opacity:0.9;fill:#1C1C1C;}
	.st22{fill:none;stroke:#FFFFFF;stroke-width:2;stroke-miterlimit:10;}
	.st23{opacity:0.5;fill:#C4C4C4;}
	.st24{opacity:0.6;clip-path:url(#SVGID_4_);fill:#2B2B2B;stroke:#2B2B2B;stroke-miterlimit:10;}
	.st25{opacity:0.31;clip-path:url(#SVGID_6_);fill:#2B2B2B;}
	.st26{opacity:0.31;clip-path:url(#SVGID_8_);fill:#2B2B2B;}
	.st27{opacity:0.31;clip-path:url(#SVGID_10_);fill:#2B2B2B;}
	.st28{opacity:0.31;clip-path:url(#SVGID_12_);fill:#2B2B2B;}
	.st29{fill:none;stroke:#C4C4C4;stroke-width:2;stroke-miterlimit:10;}
	.st30{opacity:0.6;clip-path:url(#SVGID_14_);fill:#2B2B2B;stroke:#2B2B2B;stroke-miterlimit:10;}
	.st31{opacity:0.31;clip-path:url(#SVGID_16_);fill:#2B2B2B;}
	.st32{opacity:0.31;clip-path:url(#SVGID_18_);fill:#2B2B2B;}
	.st33{opacity:0.31;clip-path:url(#SVGID_20_);fill:#2B2B2B;}
	.st34{opacity:0.31;clip-path:url(#SVGID_22_);fill:#2B2B2B;}
	.st35{opacity:0.6;clip-path:url(#SVGID_24_);fill:#2B2B2B;stroke:#2B2B2B;stroke-miterlimit:10;}
	.st36{opacity:0.31;clip-path:url(#SVGID_26_);fill:#2B2B2B;}
	.st37{opacity:0.31;clip-path:url(#SVGID_28_);fill:#2B2B2B;}
	.st38{opacity:0.31;clip-path:url(#SVGID_30_);fill:#2B2B2B;}
	.st39{opacity:0.31;clip-path:url(#SVGID_32_);fill:#2B2B2B;}
	.st40{opacity:0.6;clip-path:url(#SVGID_34_);fill:#2B2B2B;stroke:#2B2B2B;stroke-miterlimit:10;}
	.st41{opacity:0.45;clip-path:url(#SVGID_36_);fill:#2B2B2B;stroke:#2B2B2B;stroke-miterlimit:10;}
	.st42{fill:none;stroke:#C4C4C4;stroke-width:0.5;stroke-miterlimit:10;}
	.st43{fill:none;stroke:#97D339;stroke-miterlimit:10;}
	.st44{fill:none;stroke:#2B2B2B;stroke-miterlimit:10;}
	.st45{opacity:0.45;clip-path:url(#SVGID_38_);fill:#2B2B2B;stroke:#2B2B2B;stroke-miterlimit:10;}
	.st46{opacity:0.45;clip-path:url(#SVGID_40_);fill:#2B2B2B;stroke:#2B2B2B;stroke-miterlimit:10;}
	.st47{opacity:0.45;clip-path:url(#SVGID_42_);fill:#2B2B2B;stroke:#2B2B2B;stroke-miterlimit:10;}
	.st48{opacity:0.45;clip-path:url(#SVGID_44_);fill:#2B2B2B;stroke:#2B2B2B;stroke-miterlimit:10;}
	.st49{opacity:0.25;clip-path:url(#SVGID_46_);fill:#FFFFFF;stroke:#2B2B2B;stroke-miterlimit:10;}
	.st50{opacity:0.25;clip-path:url(#SVGID_48_);fill:#FFFFFF;stroke:#2B2B2B;stroke-miterlimit:10;}
	.st51{opacity:0.25;clip-path:url(#SVGID_50_);fill:#FFFFFF;stroke:#2B2B2B;stroke-miterlimit:10;}
	.st52{opacity:0.25;clip-path:url(#SVGID_52_);fill:#FFFFFF;stroke:#2B2B2B;stroke-miterlimit:10;}
	.st53{opacity:0.25;clip-path:url(#SVGID_54_);fill:#FFFFFF;stroke:#2B2B2B;stroke-miterlimit:10;}
	.st54{fill:none;stroke:#BC1D1D;stroke-width:2;stroke-miterlimit:10;}
	.st55{fill:#FFFFFF;stroke:#FFFFFF;stroke-width:0.25;stroke-miterlimit:10;}
	.st56{opacity:0.45;clip-path:url(#SVGID_56_);fill:#2B2B2B;stroke:#2B2B2B;stroke-miterlimit:10;}
	.st57{opacity:0.7;}
</style>
<g id="rules" class="st0">
</g>
<g id="columns">
</g>
<g id="numbers" class="st0">
	<g id="main_layout" class="st3">
	</g>
</g>
<g id="Style">
</g>
<g id="Wireframes">
</g>
<g id="Mockups">
	<g>
		<polygon class="st6" points="24.6,5.3 30.2,16.7 42.7,18.5 33.6,27.3 35.8,39.8 24.6,33.9 13.4,39.8 15.5,27.3 6.5,18.5 19,16.7 
					"/>
		<polygon class="st6" points="68.3,5.3 73.9,16.7 86.4,18.5 77.4,27.3 79.5,39.8 68.3,33.9 57.1,39.8 59.3,27.3 50.2,18.5 
			62.7,16.7 		"/>
		<polygon class="st6" points="112.1,5.3 117.6,16.7 130.2,18.5 121.1,27.3 123.2,39.8 112.1,33.9 100.9,39.8 103,27.3 93.9,18.5 
			106.5,16.7 		"/>
		<path class="st6" d="M219.5,17.9l-13.8-2l-6.2-12.5l-6.2,12.5l-13.8,2l10,9.7l-2.4,13.8l12.4-6.5l12.4,6.5l-2.4-13.8L219.5,17.9z
			 M209.6,38.2l-10-5.3l-10,5.3l1.9-11.2l-8.1-7.9l11.2-1.6l5-10.2l5,10.2l11.2,1.6l-8.1,7.9L209.6,38.2z"/>
		<path class="st6" d="M175.8,17.8l-13.8-2l-6.2-12.5l-6.2,12.5l-13.8,2l10,9.7l-2.4,13.8l12.4-6.5l12.4,6.5l-2.4-13.8L175.8,17.8z
			 M165.8,38.2l-10-5.3l-10,5.3l1.9-11.2l-8.1-7.9l11.2-1.6l5-10.2l5,10.2l11.2,1.6l-8.1,7.9L165.8,38.2z"/>
	</g>
</g>
</svg>
